<svg width="30" height="26" viewBox="0 0 30 26" fill="none" xmlns="http://www.w3.org/2000/svg">
<path d="M13.377 25.0166L2.78906 15.1318C2.54297 14.9033 2.30859 14.6572 2.0918 14.4052H7.18945C8.51367 14.4052 9.70898 13.6083 10.2188 12.3837L10.834 10.9072L13.7227 17.3232C13.9453 17.8212 14.4316 18.1435 14.9766 18.1494C15.5215 18.1552 16.0195 17.8564 16.2656 17.3701L18.75 12.3955L18.8496 12.5947C19.4062 13.708 20.543 14.4111 21.7852 14.4111H27.9082C27.6914 14.663 27.457 14.9091 27.2109 15.1376L16.623 25.0166C16.1836 25.4267 15.6035 25.6552 15 25.6552C14.3965 25.6552 13.8164 25.4267 13.377 25.0166ZM29.5137 11.5927H21.7793C21.6035 11.5927 21.4395 11.4931 21.3574 11.3349L19.998 8.62202C19.7578 8.14741 19.2715 7.84272 18.7383 7.84272C18.2051 7.84272 17.7188 8.14155 17.4785 8.62202L15.0527 13.4736L12.0645 6.79975C11.8359 6.28999 11.3203 5.96186 10.7637 5.97358C10.207 5.9853 9.70312 6.31928 9.48633 6.84077L7.62305 11.3115C7.55273 11.4873 7.37695 11.5986 7.18945 11.5986H0.9375C0.785156 11.5986 0.644531 11.622 0.509766 11.663C0.175781 10.7255 0 9.72944 0 8.71577V8.37592C0 4.28022 2.95898 0.788033 6.99609 0.114205C9.66797 -0.331107 12.3867 0.54194 14.2969 2.4521L15 3.15522L15.7031 2.4521C17.6133 0.54194 20.332 -0.331107 23.0039 0.114205C27.041 0.788033 30 4.28022 30 8.37592V8.71577C30 9.706 29.8359 10.6787 29.5137 11.5927Z" fill="#2563EB"/>
</svg>
