<svg width="27" height="15" viewBox="0 0 27 15" fill="none" xmlns="http://www.w3.org/2000/svg">
<path d="M7.20469 2.2875C7.52812 3.05156 8.17031 3.75 9 3.75H18C18.8297 3.75 19.4719 3.05156 19.7953 2.2875C20.3625 0.942188 21.6984 0 23.25 0C25.3219 0 27 1.67812 27 3.75C27 5.175 26.2031 6.41719 25.0312 7.05C24.8625 7.13906 24.75 7.30781 24.75 7.5C24.75 7.69219 24.8625 7.86094 25.0312 7.95C26.2031 8.58281 27 9.825 27 11.25C27 13.3219 25.3219 15 23.25 15C21.6984 15 20.3625 14.0578 19.7953 12.7125C19.4719 11.9484 18.8297 11.25 18 11.25H9C8.17031 11.25 7.52812 11.9484 7.20469 12.7125C6.6375 14.0578 5.30156 15 3.75 15C1.67812 15 0 13.3219 0 11.25C0 9.825 0.796875 8.58281 1.96875 7.95C2.1375 7.86094 2.25 7.69219 2.25 7.5C2.25 7.30781 2.1375 7.13906 1.96875 7.05C0.796875 6.41719 0 5.175 0 3.75C0 1.67812 1.67812 0 3.75 0C5.30156 0 6.6375 0.942188 7.20469 2.2875Z" fill="#7C3AED"/>
</svg>
